<?xml version="1.0" encoding="UTF-8" standalone="no"?>
<!DOCTYPE svg PUBLIC "-//W3C//DTD SVG 1.1//EN" "http://www.w3.org/Graphics/SVG/1.1/DTD/svg11.dtd">
<svg width="1024.00" height="1024.00" viewBox="0.00 0.00 1024.00 1024.00" xmlns="http://www.w3.org/2000/svg" xmlns:xlink="http://www.w3.org/1999/xlink">
<g stroke-linecap="round" id="フォルダー_2_のコピー_2_2">
<path d="M545.24,353.96 C545.24,353.96 545.24,353.96 545.24,353.96 C545.24,353.96 547.98,350.34 547.98,350.34 C547.98,350.34 558.14,335.82 558.14,335.82" fill="none" stroke="rgb(255, 255, 255)" stroke-width="2.41" stroke-opacity="1.00" stroke-linejoin="round"/>
<path d="M832.39,433.05 L771.68,582.82" fill="none" stroke="rgb(0, 0, 0)" stroke-width="60.15" stroke-opacity="1.00" stroke-linejoin="round"/>
<path d="M742.11,434.05 L681.00,583.82" fill="none" stroke="rgb(0, 0, 0)" stroke-width="60.15" stroke-opacity="1.00" stroke-linejoin="round"/>
<path d="M171.50,511.58 L174.93,515.00 L260.89,600.46 L264.38,597.04 L351.64,511.58 L260.89,420.61 L171.50,511.58 Z" fill="none" stroke="rgb(0, 0, 0)" stroke-width="48.12" stroke-opacity="1.00" stroke-linejoin="round"/>
<path d="M463.81,590.19 C456.84,601.62 438.21,631.62 430.57,641.49 C424.61,649.05 414.90,659.93 409.18,665.48 C404.36,670.13 392.27,680.43 385.33,685.35 C378.87,689.91 365.05,698.28 357.97,701.95 C349.85,706.15 335.35,711.94 328.75,714.12 C321.11,716.62 306.60,720.34 297.83,722.04 C291.28,723.26 274.27,724.78 266.21,724.96 C258.14,725.13 241.08,724.36 234.48,723.43 C225.65,722.12 210.98,719.04 203.24,716.87 C196.54,714.99 181.82,709.84 173.52,706.00 C166.32,702.64 152.18,694.87 145.48,690.59 C137.78,685.66 125.53,675.99 120.34,671.34 C114.36,665.97 103.88,655.24 98.02,648.48 C93.69,643.41 83.86,629.41 79.67,622.51 C75.49,615.60 67.62,600.41 65.12,594.22 C61.83,585.91 57.15,571.64 55.15,563.85 C53.43,557.10 50.51,541.75 49.69,532.63 C48.98,524.71 48.62,508.56 48.97,500.62 C49.38,491.47 51.61,476.01 53.03,469.19 C54.68,461.32 58.72,446.86 61.63,438.41 C63.85,432.12 71.03,416.60 74.90,409.51 C78.78,402.43 87.97,388.02 92.07,382.76 C97.62,375.75 107.61,364.57 113.35,358.94 C118.32,354.07 130.13,343.88 137.60,338.61 C144.10,334.04 157.88,325.66 164.92,321.99 C173.04,317.78 187.52,311.99 194.12,309.82 C201.75,307.32 216.27,303.59 225.04,301.89 C231.56,300.68 248.56,299.19 256.64,299.03 C264.67,298.93 282.67,299.71 288.39,300.48 C296.23,301.58 313.66,305.04 319.73,306.73 C327.28,308.85 341.01,314.15 348.49,318.07 C355.11,321.57 367.88,329.75 374.01,334.31 C380.67,339.29 390.67,348.12 396.56,354.27 C401.98,359.95 422.94,385.66 435.39,402.37 C453.88,428.00 491.54,482.11 496.05,488.37 C496.05,488.37 509.13,507.91 509.13,507.91 C509.13,507.91 513.87,514.08 513.87,514.08 C513.87,514.08 532.63,540.51 532.63,540.51 C540.20,551.86 557.28,576.52 567.06,590.55 C585.81,616.36 614.52,653.89 620.36,660.92 C626.46,668.22 635.64,677.07 642.51,682.44 C648.02,686.58 663.11,697.10 667.45,699.73 C674.06,703.71 687.71,710.38 695.83,713.16 C703.31,715.70 717.79,718.93 726.83,720.43 C736.59,721.90 750.36,722.85 758.34,723.01 C767.56,723.04 781.31,722.31 790.18,721.30 C796.74,720.50 813.47,716.82 821.21,714.56 C828.95,712.29 844.99,706.42 851.00,703.54 C859.02,699.63 872.08,692.27 878.81,687.87 C884.63,684.06 897.12,674.71 903.87,668.54 C909.72,663.17 920.87,651.50 925.96,645.41 C931.82,638.38 940.58,625.47 944.13,619.47 C948.21,612.55 954.97,599.15 958.52,590.95 C961.12,584.80 966.28,568.49 968.19,560.65 C970.10,552.80 973.03,535.95 973.54,529.30 C974.17,520.37 974.33,505.36 973.89,497.33 C973.50,490.37 971.66,474.86 969.70,465.92 C967.98,458.15 963.46,442.64 960.73,435.17 C957.58,426.58 950.79,412.51 947.39,406.44 C943.44,399.43 935.24,386.86 929.91,379.67 C925.90,374.34 914.37,361.71 908.55,356.12 C902.72,350.54 889.61,339.57 884.11,335.79 C876.71,330.78 863.81,323.13 856.65,319.49 C850.44,316.35 836.11,310.18 827.40,307.41 C819.82,305.01 804.16,301.17 796.34,299.80 C787.33,298.23 771.78,297.08 764.82,296.99 C756.79,296.91 741.83,297.73 732.96,298.76 C726.34,299.57 709.66,303.25 701.92,305.50 C694.18,307.77 678.31,313.59 672.14,316.50 C664.11,320.37 650.68,327.82 644.34,331.97 C637.75,336.29 625.68,345.66 619.30,351.59 C613.57,356.94 602.50,368.94 597.27,374.93 C587.20,386.98 570.60,410.90 564.30,420.24 C564.30,420.24 555.90,433.98 555.90,433.98" fill="none" stroke="rgb(0, 0, 0)" stroke-width="60.00" stroke-opacity="1.00" stroke-linejoin="round"/>
<path d="M474.76,668.04 C474.76,668.04 474.76,668.04 474.76,668.04 C474.76,668.04 472.02,671.66 472.02,671.66 C472.02,671.66 461.86,686.18 461.86,686.18" fill="none" stroke="rgb(255, 255, 255)" stroke-width="2.41" stroke-opacity="1.00" stroke-linejoin="round"/>
</g>
</svg>
